<svg width="19" height="30" viewBox="0 0 19 30" fill="none" xmlns="http://www.w3.org/2000/svg">
<path fill-rule="evenodd" clip-rule="evenodd" d="M0.913917 17.119C0.328707 16.5331 0 15.7388 0 14.9107C0 14.0826 0.328707 13.2883 0.913917 12.7023L12.6972 0.914848C13.2835 0.328885 14.0785 -0.000195263 14.9074 8.69239e-08C15.3178 9.68146e-05 15.7242 0.0810296 16.1033 0.238178C16.4824 0.395327 16.8269 0.625613 17.117 0.915889C17.4072 1.20617 17.6373 1.55075 17.7943 1.92996C17.9512 2.30917 18.032 2.71559 18.0319 3.126C18.0318 3.53642 17.9509 3.94279 17.7937 4.32193C17.6366 4.70107 17.4063 5.04554 17.116 5.33568L7.54308 14.9107L17.1181 24.4857C17.4167 24.7738 17.6549 25.1185 17.8189 25.4997C17.9828 25.8809 18.0692 26.2909 18.073 26.7058C18.0768 27.1208 17.9979 27.5323 17.841 27.9164C17.6841 28.3006 17.4522 28.6496 17.1589 28.9431C16.8656 29.2367 16.5168 29.4689 16.1329 29.6262C15.7489 29.7835 15.3374 29.8628 14.9225 29.8594C14.5075 29.856 14.0974 29.7699 13.7161 29.6063C13.3348 29.4427 12.9898 29.2048 12.7014 28.9065L0.909751 17.119H0.913917Z" fill="#154617"/>
</svg>
